TITLE ""
FILE "1Q_t_1801-1809.mp3" MP3
  TRACK 01 AUDIO
    TITLE "1Q_t_1801-1809_01"
    INDEX 01 00:00:00
  TRACK 02 AUDIO
    TITLE "1Q_t_1801-1809_02"
    INDEX 01 00:00:10
  TRACK 03 AUDIO
    TITLE "1Q_t_1801-1809_03"
    INDEX 01 00:01:67
  TRACK 04 AUDIO
    TITLE "1Q_t_1801-1809_04"
    INDEX 01 00:02:43
  TRACK 05 AUDIO
    TITLE "1Q_t_1801-1809_05"
    INDEX 01 00:03:46
  TRACK 06 AUDIO
    TITLE "1Q_t_1801-1809_06"
    INDEX 01 00:04:18
  TRACK 07 AUDIO
    TITLE "1Q_t_1801-1809_07"
    INDEX 01 00:05:35
  TRACK 08 AUDIO
    TITLE "1Q_t_1801-1809_08"
    INDEX 01 00:05:45
  TRACK 09 AUDIO
    TITLE "1Q_t_1801-1809_09"
    INDEX 01 00:08:29
  TRACK 10 AUDIO
    TITLE "1Q_t_1801-1809_10"
    INDEX 01 00:08:37
  TRACK 11 AUDIO
    TITLE "1Q_t_1801-1809_11"
    INDEX 01 00:14:32
  TRACK 12 AUDIO
    TITLE "1Q_t_1801-1809_12"
    INDEX 01 00:15:04
  TRACK 13 AUDIO
    TITLE "1Q_t_1801-1809_13"
    INDEX 01 00:16:21
  TRACK 14 AUDIO
    TITLE "1Q_t_1801-1809_14"
    INDEX 01 00:16:31
  TRACK 15 AUDIO
    TITLE "1Q_t_1801-1809_15"
    INDEX 01 00:18:36
  TRACK 16 AUDIO
    TITLE "1Q_t_1801-1809_16"
    INDEX 01 00:18:45
  TRACK 17 AUDIO
    TITLE "1Q_t_1801-1809_17"
    INDEX 01 00:22:75
  TRACK 18 AUDIO
    TITLE "1Q_t_1801-1809_18"
    INDEX 01 00:23:47
  TRACK 19 AUDIO
    TITLE "1Q_t_1801-1809_19"
    INDEX 01 00:24:40
  TRACK 20 AUDIO
    TITLE "1Q_t_1801-1809_20"
    INDEX 01 00:24:52
  TRACK 21 AUDIO
    TITLE "1Q_t_1801-1809_21"
    INDEX 01 00:28:40
  TRACK 22 AUDIO
    TITLE "1Q_t_1801-1809_22"
    INDEX 01 00:28:48
  TRACK 23 AUDIO
    TITLE "1Q_t_1801-1809_23"
    INDEX 01 00:34:37
  TRACK 24 AUDIO
    TITLE "1Q_t_1801-1809_24"
    INDEX 01 00:35:09
  TRACK 25 AUDIO
    TITLE "1Q_t_1801-1809_25"
    INDEX 01 00:36:37
  TRACK 26 AUDIO
    TITLE "1Q_t_1801-1809_26"
    INDEX 01 00:36:47
  TRACK 27 AUDIO
    TITLE "1Q_t_1801-1809_27"
    INDEX 01 00:40:51
  TRACK 28 AUDIO
    TITLE "1Q_t_1801-1809_28"
    INDEX 01 00:40:59
  TRACK 29 AUDIO
    TITLE "1Q_t_1801-1809_29"
    INDEX 01 00:45:68
  TRACK 30 AUDIO
    TITLE "1Q_t_1801-1809_30"
    INDEX 01 00:46:40
  TRACK 31 AUDIO
    TITLE "1Q_t_1801-1809_31"
    INDEX 01 00:47:45
  TRACK 32 AUDIO
    TITLE "1Q_t_1801-1809_32"
    INDEX 01 00:47:55
  TRACK 33 AUDIO
    TITLE "1Q_t_1801-1809_33"
    INDEX 01 00:51:19
  TRACK 34 AUDIO
    TITLE "1Q_t_1801-1809_34"
    INDEX 01 00:51:27
  TRACK 35 AUDIO
    TITLE "1Q_t_1801-1809_35"
    INDEX 01 00:55:64
  TRACK 36 AUDIO
    TITLE "1Q_t_1801-1809_36"
    INDEX 01 00:56:38
  TRACK 37 AUDIO
    TITLE "1Q_t_1801-1809_37"
    INDEX 01 00:57:57
  TRACK 38 AUDIO
    TITLE "1Q_t_1801-1809_38"
    INDEX 01 00:57:69
  TRACK 39 AUDIO
    TITLE "1Q_t_1801-1809_39"
    INDEX 01 01:00:42
  TRACK 40 AUDIO
    TITLE "1Q_t_1801-1809_40"
    INDEX 01 01:00:50
  TRACK 41 AUDIO
    TITLE "1Q_t_1801-1809_41"
    INDEX 01 01:06:25
  TRACK 42 AUDIO
    TITLE "1Q_t_1801-1809_42"
    INDEX 01 01:06:72
  TRACK 43 AUDIO
    TITLE "1Q_t_1801-1809_43"
    INDEX 01 01:08:06
  TRACK 44 AUDIO
    TITLE "1Q_t_1801-1809_44"
    INDEX 01 01:08:16
  TRACK 45 AUDIO
    TITLE "1Q_t_1801-1809_45"
    INDEX 01 01:10:07
  TRACK 46 AUDIO
    TITLE "1Q_t_1801-1809_46"
    INDEX 01 01:10:15
  TRACK 47 AUDIO
    TITLE "1Q_t_1801-1809_47"
    INDEX 01 01:15:55
  TRACK 48 AUDIO
    TITLE "1Q_t_1801-1809_48"
    INDEX 01 01:16:27
  TRACK 49 AUDIO
    TITLE "1Q_t_1801-1809_49"
    INDEX 01 01:17:44
  TRACK 50 AUDIO
    TITLE "1Q_t_1801-1809_50"
    INDEX 01 01:17:54
  TRACK 51 AUDIO
    TITLE "1Q_t_1801-1809_51"
    INDEX 01 01:20:09
  TRACK 52 AUDIO
    TITLE "1Q_t_1801-1809_52"
    INDEX 01 01:20:17
  TRACK 53 AUDIO
    TITLE "1Q_t_1801-1809_53"
    INDEX 01 01:25:30
  TRACK 54 AUDIO
    TITLE "1Q_t_1801-1809_54"
    INDEX 01 01:26:02
  TRACK 55 AUDIO
    TITLE "1Q_t_1801-1809_55"
    INDEX 01 01:27:19
  TRACK 56 AUDIO
    TITLE "1Q_t_1801-1809_56"
    INDEX 01 01:27:29
  TRACK 57 AUDIO
    TITLE "1Q_t_1801-1809_57"
    INDEX 01 01:30:43
  TRACK 58 AUDIO
    TITLE "1Q_t_1801-1809_58"
    INDEX 01 01:30:51
  TRACK 59 AUDIO
    TITLE "1Q_t_1801-1809_59"
    INDEX 01 01:36:59
